<?xml version="1.0" encoding="utf-8"?>
<!-- Generator: Adobe Illustrator 16.0.0, SVG Export Plug-In . SVG Version: 6.00 Build 0)  -->
<!DOCTYPE svg PUBLIC "-//W3C//DTD SVG 1.1//EN" "http://www.w3.org/Graphics/SVG/1.1/DTD/svg11.dtd" [
	<!ENTITY ns_extend "http://ns.adobe.com/Extensibility/1.0/">
	<!ENTITY ns_ai "http://ns.adobe.com/AdobeIllustrator/10.0/">
	<!ENTITY ns_graphs "http://ns.adobe.com/Graphs/1.0/">
	<!ENTITY ns_vars "http://ns.adobe.com/Variables/1.0/">
	<!ENTITY ns_imrep "http://ns.adobe.com/ImageReplacement/1.0/">
	<!ENTITY ns_sfw "http://ns.adobe.com/SaveForWeb/1.0/">
	<!ENTITY ns_custom "http://ns.adobe.com/GenericCustomNamespace/1.0/">
	<!ENTITY ns_adobe_xpath "http://ns.adobe.com/XPath/1.0/">
]>
<svg version="1.1" id="Capa_1" xmlns:x="&ns_extend;" xmlns:i="&ns_ai;" xmlns:graph="&ns_graphs;"
	 xmlns="http://www.w3.org/2000/svg" xmlns:xlink="http://www.w3.org/1999/xlink" x="0px" y="0px" width="484px" height="100px"
	 viewBox="0 0 484 100" enable-background="new 0 0 484 100" xml:space="preserve">
<metadata>
	<sfw  xmlns="&ns_sfw;">
		<slices></slices>
		<sliceSourceBounds  x="-115.05" y="-90.736" width="443.069" height="83.269" bottomLeftOrigin="true"></sliceSourceBounds>
	</sfw>
</metadata>
<g>
	<path fill="#383A89" d="M135.613,40.354l-2.683,4.025c-2.362-1.503-4.616-2.308-7.138-2.308c-2.737,0-4.293,1.127-4.293,2.844
		c0,1.878,1.126,2.736,5.957,4.079c5.797,1.557,9.069,3.918,9.069,8.962c0,5.903-5.474,9.017-11.966,9.017
		c-4.884,0-8.695-1.665-11.325-4.026l3.435-3.864c2.201,1.665,4.83,2.79,7.729,2.79c3.058,0,5.044-1.289,5.044-3.434
		c0-2.361-1.126-3.112-6.439-4.614c-5.851-1.609-8.427-4.4-8.427-8.586c0-4.723,4.348-8.267,10.949-8.267
		C129.603,36.972,132.931,38.26,135.613,40.354"/>
	<path fill="#383A89" d="M167.33,51.892c0,8.695-4.025,15.082-11.216,15.082c-2.898,0-5.367-1.02-7.138-3.115v13.258l-6.87,0.75
		V37.779h6.011l0.376,3.488c2.254-2.952,5.312-4.294,8.211-4.294C164.217,36.973,167.33,42.822,167.33,51.892 M160.139,51.946
		c0-7.191-1.932-9.821-5.474-9.821c-2.362,0-4.348,1.664-5.689,3.864v12.772c1.341,1.986,3.059,2.952,5.206,2.952
		C157.938,61.714,160.139,58.815,160.139,51.946"/>
	<path fill="#383A89" d="M181.82,27.582c0,2.306-1.771,4.132-4.348,4.132c-2.522,0-4.293-1.826-4.293-4.132
		c0-2.362,1.771-4.186,4.293-4.186C180.048,23.396,181.82,25.22,181.82,27.582 M180.96,66.169h-6.87v-28.39h6.87V66.169z"/>
	<path fill="#383A89" d="M212.409,45.614v20.555h-6.87V46.687c0-3.543-1.34-4.562-3.488-4.562c-2.469,0-4.293,1.664-5.958,4.293
		v19.75h-6.869V37.778h5.957l0.538,3.757c2.201-2.844,5.044-4.562,8.64-4.562C209.458,36.973,212.409,40.192,212.409,45.614"/>
	<path fill="#383A89" d="M239.509,40.354l-1.554,2.039c-1.827-1.449-3.65-2.2-6.226-2.2c-5.099,0-8.694,3.971-8.694,12.075
		c0,8.05,3.542,11.752,8.641,11.752c2.63,0,4.508-0.859,6.494-2.361l1.502,2.092c-2.2,1.879-4.883,3.008-8.05,3.008
		c-7.19,0-11.916-5.313-11.916-14.437c0-9.016,4.669-14.813,11.863-14.813C234.733,37.509,237.149,38.314,239.509,40.354"/>
	<path fill="#383A89" d="M268.113,52.054c0,9.069-4.507,14.705-11.911,14.705c-7.463,0-11.862-5.582-11.862-14.598
		c0-9.017,4.562-14.652,11.913-14.652C263.711,37.509,268.113,42.876,268.113,52.054 M247.667,52.161
		c0,7.889,3.167,11.967,8.534,11.967c5.365,0,8.639-4.024,8.639-12.074c0-7.89-3.166-11.914-8.588-11.914
		C250.939,40.14,247.667,44.111,247.667,52.161"/>
	<path fill="#383A89" d="M311.906,46.097v20.072h-3.115V46.526c0-4.562-1.878-6.494-4.774-6.494c-3.382,0-5.741,2.361-7.888,5.794
		v20.342h-3.113V46.526c0-4.562-1.879-6.494-4.777-6.494c-3.381,0-5.794,2.361-7.888,5.794v20.342h-3.115V38.1h2.684l0.269,4.724
		c2.094-3.167,4.994-5.313,8.642-5.313c3.596,0,6.065,2.039,6.924,5.58c2.201-3.327,5.097-5.58,8.854-5.58
		C309.113,37.51,311.906,40.784,311.906,46.097"/>
	<path fill="#383A89" d="M357.681,46.097v20.072h-3.113V46.526c0-4.562-1.878-6.494-4.772-6.494c-3.384,0-5.745,2.361-7.892,5.794
		v20.342h-3.111V46.526c0-4.562-1.879-6.494-4.777-6.494c-3.381,0-5.794,2.361-7.89,5.794v20.342h-3.113V38.1h2.684l0.271,4.724
		c2.092-3.167,4.989-5.313,8.638-5.313c3.598,0,6.064,2.039,6.924,5.58c2.202-3.327,5.099-5.58,8.856-5.58
		C354.89,37.51,357.681,40.784,357.681,46.097"/>
	<path fill="#383A89" d="M388.593,53.342h-18.728c0.373,7.619,3.916,10.786,8.744,10.786c3.062,0,5.101-0.967,7.568-2.79
		l1.449,1.986c-2.628,2.146-5.476,3.435-9.177,3.435c-7.407,0-11.913-5.367-11.913-14.384c0-8.962,4.346-14.866,11.216-14.866
		c7.297,0,10.947,5.314,10.947,13.578C388.701,51.946,388.649,52.804,388.593,53.342 M385.641,50.123
		c0-6.119-2.469-10.038-7.78-10.038c-4.346,0-7.676,3.275-8.049,10.842h15.829V50.123z"/>
	<path fill="#383A89" d="M411.346,37.832l-0.59,2.952c-0.806-0.214-1.503-0.322-2.467-0.322c-3.919,0-6.065,2.843-7.515,8.64v17.064
		h-3.111V38.101h2.682l0.269,6.279c1.503-4.615,4.025-6.869,7.941-6.869C409.631,37.51,410.595,37.617,411.346,37.832"/>
	<path fill="#383A89" d="M434.69,40.354l-1.554,2.039c-1.827-1.449-3.65-2.2-6.227-2.2c-5.099,0-8.693,3.971-8.693,12.075
		c0,8.05,3.541,11.752,8.64,11.752c2.63,0,4.509-0.859,6.494-2.361l1.503,2.092c-2.2,1.879-4.884,3.008-8.049,3.008
		c-7.192,0-11.915-5.313-11.915-14.437c0-9.016,4.667-14.813,11.861-14.813C429.916,37.509,432.331,38.314,434.69,40.354"/>
	<path fill="#383A89" d="M461.579,53.342h-18.728c0.373,7.619,3.916,10.786,8.744,10.786c3.062,0,5.102-0.967,7.568-2.79
		l1.449,1.986c-2.63,2.146-5.475,3.435-9.177,3.435c-7.406,0-11.915-5.367-11.915-14.384c0-8.962,4.348-14.866,11.218-14.866
		c7.298,0,10.947,5.314,10.947,13.578C461.686,51.946,461.634,52.804,461.579,53.342 M458.626,50.123
		c0-6.119-2.469-10.038-7.78-10.038c-4.346,0-7.676,3.275-8.051,10.842h15.831V50.123z"/>
	<g>
		<path fill="none" d="M74.433,66.791c-0.253-0.691-0.581-1.395-1.001-2.11l-9.699-16.464l0.009-0.006L53.627,31.037
			c-1.631-2.768-1.397-4.541,0.117-5.433s3.177-0.236,4.808,2.533l7.91,13.72l0.015-0.008c0.184,0.311,0.421,0.597,0.708,0.848
			c1.46,1.269,3.672,1.116,4.943-0.343c1.011-1.162,1.119-2.799,0.385-4.061l0.004-0.002l-8.467-14.667
			c-0.408-0.693-0.85-1.304-1.315-1.849l0.006,0c0,0-4.568-7.661-12.949-2.936c-7.984,4.501-3.82,12.625-3.82,12.625l0.006-0.009
			c0.258,0.722,0.595,1.456,1.035,2.202l9.699,16.467l-0.01,0.006l10.115,17.172c1.632,2.77,1.398,4.542-0.117,5.434
			c-1.514,0.892-3.177,0.237-4.808-2.532l-9.417-15.997c-0.194-0.353-0.452-0.677-0.773-0.957c-1.466-1.274-3.688-1.12-4.964,0.345
			c-1.077,1.236-1.135,3.014-0.245,4.304l9.9,16.819c0.418,0.706,0.871,1.331,1.348,1.884c0.62,0.941,5.051,7.066,12.872,2.813
			c8.227-4.474,3.82-12.626,3.82-12.626L74.433,66.791z"/>
		<linearGradient id="SVGID_1_" gradientUnits="userSpaceOnUse" x1="22.5093" y1="66.7012" x2="97.9941" y2="31.502">
			<stop  offset="0" style="stop-color:#3A3A8A"/>
			<stop  offset="1" style="stop-color:#459E66"/>
		</linearGradient>
		<path fill="url(#SVGID_1_)" d="M60.251,7.467c-22.995,0-41.634,18.64-41.634,41.634c0,22.996,18.64,41.635,41.634,41.635
			c22.994,0,41.634-18.64,41.634-41.635C101.885,26.107,83.245,7.467,60.251,7.467z M70.615,79.415
			c-7.821,4.253-12.252-1.872-12.872-2.813c-0.477-0.553-0.93-1.178-1.348-1.884l-9.9-16.819c-0.89-1.29-0.832-3.067,0.245-4.304
			c1.276-1.465,3.498-1.619,4.964-0.345c0.321,0.28,0.579,0.604,0.773,0.957l9.417,15.997c1.631,2.77,3.294,3.424,4.808,2.532
			c1.515-0.892,1.749-2.664,0.117-5.434L56.704,50.13l0.01-0.006l-9.699-16.467c-0.44-0.746-0.777-1.479-1.035-2.202l-0.006,0.009
			c0,0-4.165-8.124,3.82-12.625c8.38-4.725,12.949,2.936,12.949,2.936l-0.006,0c0.465,0.545,0.907,1.156,1.315,1.849l8.467,14.667
			l-0.004,0.002c0.733,1.261,0.625,2.899-0.385,4.061c-1.271,1.459-3.483,1.612-4.943,0.343c-0.287-0.251-0.524-0.538-0.708-0.848
			l-0.015,0.008l-7.91-13.72c-1.631-2.769-3.293-3.425-4.808-2.533s-1.748,2.665-0.117,5.433L63.742,48.21l-0.009,0.006
			l9.699,16.464c0.421,0.716,0.748,1.419,1.001,2.11l0.002-0.002C74.435,66.789,78.842,74.941,70.615,79.415z"/>
	</g>
</g>
</svg>
